<svg id="Lag_1" data-name="Lag 1" xmlns="http://www.w3.org/2000/svg" viewBox="0 0 1065.38 468.66"><defs><style>.cls-1,.cls-10,.cls-12,.cls-19,.cls-24,.cls-28,.cls-29,.cls-3,.cls-32,.cls-34,.cls-35,.cls-6{fill:none;}.cls-1,.cls-35{stroke:#b2b2b2;}.cls-1,.cls-10,.cls-11,.cls-12,.cls-13,.cls-19,.cls-21,.cls-24,.cls-28,.cls-29,.cls-3,.cls-30,.cls-31,.cls-32,.cls-33,.cls-34,.cls-35,.cls-41,.cls-42,.cls-43,.cls-44,.cls-45,.cls-46,.cls-5,.cls-6,.cls-8,.cls-9{stroke-miterlimit:10;}.cls-2{fill:#cce0e5;}.cls-3{stroke:#683c11;}.cls-4{fill:#b2b2b2;}.cls-44,.cls-5,.cls-8{fill:#84c0dc;}.cls-10,.cls-5,.cls-8{stroke:#19435a;}.cls-5,.cls-6{stroke-width:5px;}.cls-11,.cls-12,.cls-29,.cls-30,.cls-31,.cls-32,.cls-6{stroke:#575756;}.cls-7{fill:#509cc0;}.cls-29,.cls-34,.cls-8{stroke-width:2px;}.cls-9{fill:#2d2e83;stroke:#2d2e83;}.cls-11,.cls-13,.cls-18,.cls-38{fill:#1d1d1b;}.cls-13{stroke:#3c3c3b;}.cls-14{fill:#36a9e1;}.cls-15,.cls-46{fill:#dadada;}.cls-16{fill:#b17f4a;}.cls-17,.cls-30{fill:#9d9d9c;}.cls-19{stroke:#509cc0;}.cls-19,.cls-35{stroke-width:3px;}.cls-20,.cls-21{fill:#19435a;}.cls-21,.cls-24{stroke:#fff;}.cls-22{font-size:6.33px;}.cls-22,.cls-25,.cls-37{fill:#fff;}.cls-22,.cls-25{font-family:SignPainter-HouseScript, SignPainter;}.cls-23{letter-spacing:-0.03em;}.cls-25{font-size:32.56px;}.cls-26{letter-spacing:-0.03em;}.cls-27{letter-spacing:0em;}.cls-28,.cls-33{stroke:#1d1d1b;}.cls-30,.cls-31{stroke-width:0.5px;}.cls-31{fill:#575756;}.cls-32{stroke-width:0.75px;}.cls-33{fill:#be1622;stroke-width:0.1px;}.cls-34{stroke:#878787;}.cls-36{fill:#3c3c3b;}.cls-37{font-size:11.36px;font-family:Copperplate;}.cls-38{opacity:0.21;}.cls-39,.cls-40{fill:#f6f6f6;}.cls-39{opacity:0.63;}.cls-41{fill:#8dd1e6;}.cls-41,.cls-42,.cls-43,.cls-44,.cls-45,.cls-46{stroke:#f6f6f6;stroke-width:0.25px;}.cls-42{fill:#009db8;}.cls-43{fill:#2d6f8d;}.cls-45{fill:#8ed1e6;}.cls-46{opacity:0.36;}</style></defs><title>cykeldesk1</title><path class="cls-1" d="M479.85,396.48" transform="translate(-0.79 -0.46)"/><rect class="cls-2" width="1065.38" height="468.66"/><path class="cls-3" d="M655.37-1" transform="translate(-0.79 -0.46)"/><polygon class="cls-4" points="539.63 338.59 520.26 348.16 519.22 346.3 538.6 336.73 539.63 338.59"/><polygon class="cls-4" points="540.12 330.85 518.44 328.13 518.73 326.05 540.42 328.77 540.12 330.85"/><rect class="cls-5" x="534.76" y="235.85" width="192.54" height="117.67"/><path class="cls-4" d="M634.55,365.56v2.15H517V314h4.71v51.57Z" transform="translate(-0.79 -0.46)"/><ellipse class="cls-6" cx="633.75" cy="365.19" rx="39.42" ry="37.09"/><polygon class="cls-7" points="421.11 296.73 419.39 298.55 368.89 352.38 366.74 354.68 365.07 354.52 363.1 354.32 418.78 294.97 418.99 294.75 421.11 296.73"/><polygon class="cls-7" points="430.63 358.33 430.37 360.85 430 360.81 366.74 354.68 365.07 354.52 365.32 352.04 368.89 352.38 429.56 358.22 430.63 358.33"/><rect class="cls-4" x="533.15" y="124.59" width="3.83" height="109.74"/><path class="cls-8" d="M695.87,125.66h-320c4.65-6.36,59.9-79.22,160-79.22S691.22,119.3,695.87,125.66Z" transform="translate(-0.79 -0.46)"/><path class="cls-9" d="M402.12,203" transform="translate(-0.79 -0.46)"/><path class="cls-10" d="M453.41,125.66a110.94,110.94,0,0,1,27-46.17c19.67-20.38,42.35-29.38,53.48-33" transform="translate(-0.79 -0.46)"/><path class="cls-10" d="M417,125.63c4.17-10,14.11-28.29,39-46.15,28.31-20.36,61-29.35,77-33" transform="translate(-0.79 -0.46)"/><path class="cls-10" d="M533.94,46.44c14.81,2.2,42.08,8,69.47,24.86,31.21,19.25,46.05,42.75,52.24,54.35" transform="translate(-0.79 -0.46)"/><path class="cls-10" d="M533,46.46c9.81,2.42,27.9,8.54,46.32,25.45,21,19.28,31.27,42.38,35.6,53.75" transform="translate(-0.79 -0.46)"/><path class="cls-10" d="M533,46.46c4.66,2.65,13.31,9.12,22.49,26.06,10.46,19.31,16.06,42,18.47,53.13" transform="translate(-0.79 -0.46)"/><path class="cls-10" d="M493.78,125.63c.07-3.78,1.27-12.07,9.5-29.15,9.38-19.46,22.92-40,29.7-50" transform="translate(-0.79 -0.46)"/><ellipse class="cls-11" cx="633.75" cy="365.19" rx="3.24" ry="3.04"/><line class="cls-12" x1="606.26" y1="391.76" x2="661.25" y2="338.62"/><line class="cls-12" x1="633.75" y1="328.1" x2="633.75" y2="402.28"/><line class="cls-12" x1="673.17" y1="365.19" x2="594.34" y2="365.19"/><line class="cls-12" x1="605.5" y1="338.97" x2="661.24" y2="391.41"/><line class="cls-12" x1="597.2" y1="351.66" x2="670.3" y2="379.44"/><line class="cls-12" x1="596.89" y1="378.69" x2="670.61" y2="352.4"/><line class="cls-12" x1="619.23" y1="331.07" x2="648.27" y2="400.03"/><line class="cls-12" x1="647.76" y1="330.58" x2="619.45" y2="399.8"/><ellipse class="cls-6" cx="365.07" cy="354.68" rx="49.54" ry="47.53"/><ellipse class="cls-13" cx="365.07" cy="354.68" rx="4.07" ry="3.9"/><line class="cls-12" x1="330.52" y1="388.73" x2="399.63" y2="320.63"/><line class="cls-12" x1="365.07" y1="307.16" x2="365.07" y2="402.2"/><line class="cls-12" x1="414.6" y1="354.68" x2="315.54" y2="354.68"/><line class="cls-12" x1="329.57" y1="321.08" x2="399.62" y2="388.28"/><line class="cls-12" x1="319.15" y1="337.34" x2="411" y2="372.94"/><line class="cls-12" x1="318.76" y1="371.98" x2="411.39" y2="338.3"/><line class="cls-12" x1="346.83" y1="310.96" x2="383.32" y2="399.32"/><line class="cls-12" x1="382.67" y1="310.33" x2="347.1" y2="399.03"/><rect class="cls-14" x="515.36" y="313.53" width="5.98" height="1.58"/><rect class="cls-7" x="515.99" y="285.05" width="4.67" height="28.49"/><rect class="cls-14" x="515.36" y="283.46" width="5.98" height="1.58"/><polygon class="cls-4" points="520.65 277.83 520.65 283.46 515.99 283.46 515.99 273.19 517.8 273.19 520.64 277.83 520.65 277.83"/><polygon class="cls-4" points="520.65 277.85 516.61 280.05 508.35 266.57 507.4 265.03 510.8 263.18 510.9 263.27 512.34 264.78 513.12 265.6 513.13 265.59 520.65 277.85"/><polygon class="cls-15" points="525.16 271.94 525.35 271.94 525.35 271.94 525.16 271.94 525.16 271.94"/><polygon class="cls-4" points="512.34 264.78 511.32 267.54 508.35 266.57 499.87 263.81 501.4 259.66 510.06 262.49 510.9 263.27 512.34 264.78"/><path class="cls-16" d="M501.43,265.29l-22.67-1a.86.86,0,0,1-.85-.87l.22-4.42a.86.86,0,0,1,.92-.79l22.67,1a.86.86,0,0,1,.85.88l-.22,4.41A.86.86,0,0,1,501.43,265.29Z" transform="translate(-0.79 -0.46)"/><polygon class="cls-7" points="516.4 288.66 420.58 300.57 420.21 297.56 516.03 285.65 516.4 288.66"/><polygon class="cls-7" points="518.24 298.8 517.08 299.63 434.13 359.23 431.92 360.81 430 358.1 433.5 355.59 516.33 296.09 518.24 298.8"/><polygon class="cls-7" points="433.74 359.5 431.67 360.98 430.37 360.85 430 360.81 429.56 358.22 419.39 298.55 418.78 294.97 418.52 293.42 422.37 292.78 433.12 355.84 433.73 359.49 433.74 359.5"/><polygon class="cls-14" points="434.62 358.61 434.53 358.63 434.61 358.57 434.62 358.61"/><polygon class="cls-14" points="423.4 292.64 417.51 293.62 417.22 291.93 423.11 290.95 423.4 292.64"/><polygon class="cls-17" points="418.86 291.87 417.22 282.23 419.74 281.81 421.38 291.44 418.86 291.87"/><path class="cls-16" d="M419,275.59a54.68,54.68,0,0,0-9.84.82,4.86,4.86,0,0,0-2.9,1.31,4.78,4.78,0,0,0-.27,5.71c1.23,1.7,3.47,1.83,5.78,2a16.72,16.72,0,0,0,5.74-.81,20.41,20.41,0,0,0,2.71-1c.55,0,1.56-.07,2.82-.08,7-.07,10.46,0,12.2.05a7,7,0,0,0,3.28-.52,2.29,2.29,0,0,0,1.27-2.73,3.3,3.3,0,0,0-2.09-1.52,70.69,70.69,0,0,0-18.7-3.2h0c-5.13,0-8.34.29-9.84.82" transform="translate(-0.79 -0.46)"/><polygon class="cls-7" points="517.07 299.65 433.74 359.5 431.53 361.08 433.73 359.49 517 299.53 517.07 299.65"/><rect class="cls-18" x="544.99" y="109.05" height="0.15"/><path class="cls-19" d="M590.44,357c4.36-19.2,22-33.16,42.41-33.81,21.47-.69,40.87,13.56,45.5,33.81" transform="translate(-0.79 -0.46)"/><path class="cls-19" d="M311.19,342.9c5.4-23.19,27.3-40,52.54-40.84,26.59-.83,50.62,16.38,56.36,40.84" transform="translate(-0.79 -0.46)"/><polygon class="cls-20" points="695.08 125.22 684.99 132.03 664.86 132.01 654.86 125.21 695.05 125.21 695.08 125.22"/><polygon class="cls-20" points="655.87 125.22 645.78 132.03 625.65 132.01 615.65 125.21 655.85 125.21 655.87 125.22"/><polygon class="cls-20" points="616.03 125.22 605.94 132.03 585.82 132.01 575.81 125.21 616.01 125.21 616.03 125.22"/><polygon class="cls-20" points="577.21 125.22 567.12 132.03 546.99 132.01 536.99 125.21 577.18 125.21 577.21 125.22"/><polygon class="cls-20" points="533.15 125.22 523.06 132.03 502.94 132.01 492.93 125.21 533.13 125.21 533.15 125.22"/><polygon class="cls-20" points="493.94 125.22 483.85 132.03 463.73 132.01 453.72 125.21 493.92 125.21 493.94 125.22"/><polygon class="cls-20" points="454.11 125.22 444.01 132.03 423.89 132.01 413.88 125.21 454.08 125.21 454.11 125.22"/><polygon class="cls-20" points="415.28 125.22 405.19 132.03 385.06 132.01 375.06 125.21 415.26 125.21 415.28 125.22"/><ellipse class="cls-21" cx="535.07" cy="98.41" rx="21.04" ry="18.87"/><text class="cls-22" transform="translate(526.78 111.27) scale(1.11 1)">Hje<tspan class="cls-23" x="6.25" y="0">m</tspan><tspan x="9.63" y="0">-IS</tspan></text><path class="cls-24" d="M536.52,105a49.41,49.41,0,0,1,.55-11.65,8.85,8.85,0,0,1,1.61-4.26,4.3,4.3,0,0,1,4.43-1.48c1.87.64,2.54,2.72,2.53,4.51a3.42,3.42,0,0,1-.38,1.75c-.67,1.1-2.22,1.46-3.6,1.7" transform="translate(-0.79 -0.46)"/><path class="cls-24" d="M534.24,105a49.94,49.94,0,0,0-.54-11.65,8.81,8.81,0,0,0-1.58-4.26,4.16,4.16,0,0,0-4.34-1.48c-1.83.64-2.49,2.72-2.47,4.51a3.42,3.42,0,0,0,.37,1.75c.65,1.1,2.18,1.46,3.52,1.7" transform="translate(-0.79 -0.46)"/><path class="cls-24" d="M538.19,105a36.2,36.2,0,0,1,1.29-13.29,4.29,4.29,0,0,1,.94-1.88,1.85,1.85,0,0,1,2.05-.46,1.8,1.8,0,0,1,.68.63,2.43,2.43,0,0,1,.32,2.35,2.07,2.07,0,0,1-2.11,1.19" transform="translate(-0.79 -0.46)"/><path class="cls-24" d="M532.6,105a34.6,34.6,0,0,0-1.34-13.29,4.06,4.06,0,0,0-1-1.88,2,2,0,0,0-2.14-.46,1.88,1.88,0,0,0-.71.63,2.42,2.42,0,0,0-.34,2.35,2.19,2.19,0,0,0,2.21,1.19" transform="translate(-0.79 -0.46)"/><text class="cls-25" transform="translate(549.5 278.33) scale(1.41 1)">Hje<tspan class="cls-26" x="32.1" y="0">m</tspan><tspan class="cls-27" x="49.52" y="0">-IS</tspan></text><path class="cls-3" d="M708.81,266" transform="translate(-0.79 -0.46)"/><path class="cls-28" d="M500.68,170.52" transform="translate(-0.79 -0.46)"/><path class="cls-29" d="M499.71,146.71a19.61,19.61,0,0,1,9.53-7,42.55,42.55,0,0,1,11.45-2.06q6.62-.47,13.25-.28" transform="translate(-0.79 -0.46)"/><path class="cls-30" d="M498.91,146a7.66,7.66,0,0,0-3,1.41,6,6,0,0,0-1.8,2.3,5.45,5.45,0,0,0-.43,1.7,7.48,7.48,0,0,0,0,1.26,21,21,0,0,1,0,2.92,10.45,10.45,0,0,1-.8,3.1,13.8,13.8,0,0,1-3.87,5.17.36.36,0,0,0-.1.35c0,.12.16.18.24.23a1.43,1.43,0,0,0,.59.13H512a.59.59,0,0,0,.4-.16.44.44,0,0,0,.1-.32.77.77,0,0,0-.29-.46c-.46-.39-.83-.85-1.32-1.2a6.62,6.62,0,0,1-1.42-2,13.05,13.05,0,0,1-1.27-2.7,11.15,11.15,0,0,1-.52-3.89,9.88,9.88,0,0,0,.07-3.1,5.39,5.39,0,0,0-.69-1.74,6.83,6.83,0,0,0-2.52-2.27,7.73,7.73,0,0,0-2.41-.82,1.1,1.1,0,0,0,0-.38s0-.1,0-.18a1.18,1.18,0,0,0-.36-.52,1.45,1.45,0,0,0-.78-.34,1.82,1.82,0,0,0-.9.14,1.41,1.41,0,0,0-.61.4,1,1,0,0,0-.21.85Z" transform="translate(-0.79 -0.46)"/><path class="cls-31" d="M504.72,166.89l-.9-2.17h1.67l.68,1.83a2.28,2.28,0,0,1,.85.22,1.85,1.85,0,0,1,.74.68,1.41,1.41,0,0,1,.12,1.17,1.77,1.77,0,0,1-.9,1,2.43,2.43,0,0,1-1.37.2,2,2,0,0,1-1.17-.55,1.47,1.47,0,0,1-.38-1,1.33,1.33,0,0,1,.26-1C504.39,167.19,504.72,166.89,504.72,166.89Z" transform="translate(-0.79 -0.46)"/><path class="cls-28" d="M499.71,146.71" transform="translate(-0.79 -0.46)"/><path class="cls-32" d="M501.17,164.52a34.74,34.74,0,0,0,.93,17.61c2.09,6.55,6.11,12.52,7.21,19.29a14,14,0,0,1-.76,8.06,32.27,32.27,0,0,1-3.2,4.88,28,28,0,0,0-4.31,22c.57,2.5,1.5,4.93,1.85,7.47a14,14,0,0,1-2.1,9.88c-1.25,1.83-3,3.31-4.27,5.13s-2,4.24-.95,6.19" transform="translate(-0.79 -0.46)"/><path class="cls-32" d="M514.85,139.05a26.15,26.15,0,0,0,19.09,11.48" transform="translate(-0.79 -0.46)"/><path class="cls-32" d="M497.71,258.92a14.27,14.27,0,0,0-.75,3.13,5.06,5.06,0,0,0,.62,3.12" transform="translate(-0.79 -0.46)"/><path class="cls-33" d="M550.36,105.93l-5,.54a1.31,1.31,0,0,1-1.47-1.1l-.22-1.82a1.28,1.28,0,0,1,1.17-1.39l5-.54a1.31,1.31,0,0,1,1.47,1.1l.22,1.82A1.27,1.27,0,0,1,550.36,105.93Z" transform="translate(-0.79 -0.46)"/><line class="cls-24" x1="544.78" y1="101.6" x2="545.3" y2="105.91"/><path class="cls-4" d="M432.09,349.71c-5.5,0-10,4.2-10,9.37s4.46,9.37,10,9.37,10-4.2,10-9.37S437.59,349.71,432.09,349.71Zm0,16a6.64,6.64,0,1,1,7.05-6.63A6.84,6.84,0,0,1,432.09,365.71Z" transform="translate(-0.79 -0.46)"/><line class="cls-24" x1="550.63" y1="103.15" x2="542.96" y2="103.98"/><path class="cls-7" d="M725.59,319.74H537.78V302a791.52,791.52,0,0,1,187.81,0Z" transform="translate(-0.79 -0.46)"/><path class="cls-34" d="M442.24,359.08a9.69,9.69,0,0,1-4.33,7.71c-3.46,2.25-7.38,1.28-14.2.2-6.24-1-12.58-1.24-18.83-2.11-14.11-2-39.95-3.94-42.51-7.37a4.52,4.52,0,0,1-.92-2.37,4.73,4.73,0,0,1,1-2.79c2.56-3.35,26-1.74,43.32-2.34,6.62-.23,13.25.33,19.87.15,6.3-.17,11-.5,14,2.5A9.15,9.15,0,0,1,442.24,359.08Z" transform="translate(-0.79 -0.46)"/><path class="cls-1" d="M481.52,392.62" transform="translate(-0.79 -0.46)"/><line class="cls-35" x1="431.53" y1="358.94" x2="441.45" y2="372.58"/><line class="cls-35" x1="435.86" y1="372.79" x2="447.45" y2="372.75"/><ellipse class="cls-36" cx="431.3" cy="358.62" rx="3.05" ry="2.87"/><text class="cls-37" transform="translate(573.08 312.02) scale(1.06 1)">LYDEN AF DANSK IS</text><ellipse class="cls-38" cx="512.21" cy="406.33" rx="248.83" ry="4.13"/><path class="cls-39" d="M269.41,116.47c38.94.28,58.5,2,63-6.23,1-1.92,2.4-6.53.3-10.59-2.18-4.22-6-3.81-9.64-8.76-3.31-4.51-1.22-6.34-4.82-10.83-1.36-1.7-5-6.21-9.64-6.19-4.51,0-6.05,4.23-11.45,4.13a12,12,0,0,1-5.43-1.55c-5.52-2.91-4.37-7.39-9-9.28-2.61-1.06-5.38-.63-7.51-.3a22.36,22.36,0,0,0-7.56,2.88c-6.19,3.49-5.34,5.52-9,6.7-4.32,1.38-6.14-1.18-12.65-.52a26.54,26.54,0,0,0-9.65,3.1c-6.86,3.38-6.42,6-13.26,10.82-7.69,5.45-11.33,4.32-14.46,8.77-2.17,3.08-3.47,7.94-1.81,11.34C210.51,117.74,229.06,116.18,269.41,116.47Z" transform="translate(-0.79 -0.46)"/><path class="cls-40" d="M269.87,91.65" transform="translate(-0.79 -0.46)"/><path class="cls-39" d="M859.28,248.74c-26.2.23-39.36,1.59-42.35-4.9a10.94,10.94,0,0,1-.21-8.33c1.47-3.32,4-3,6.49-6.9,2.23-3.55.82-5,3.24-8.52.92-1.33,3.34-4.88,6.49-4.87s4.07,3.33,7.71,3.25a7.16,7.16,0,0,0,3.64-1.22c3.72-2.29,3-5.81,6.09-7.3a8,8,0,0,1,5-.24,13.83,13.83,0,0,1,5.08,2.27c4.17,2.75,3.6,4.34,6.09,5.27,2.9,1.09,4.13-.92,8.51-.4a16.14,16.14,0,0,1,6.49,2.43c4.61,2.66,4.32,4.72,8.92,8.52,5.18,4.28,7.62,3.4,9.73,6.9,1.47,2.42,2.34,6.24,1.22,8.92C898.92,249.75,886.44,248.51,859.28,248.74Z" transform="translate(-0.79 -0.46)"/><path class="cls-39" d="M834,83c-21.62.15-32.48,1-35-3.11a5.48,5.48,0,0,1-.17-5.29c1.21-2.11,3.33-1.91,5.35-4.39,1.84-2.25.68-3.16,2.68-5.41.75-.85,2.75-3.11,5.35-3.09s3.36,2.11,6.36,2.06a7.06,7.06,0,0,0,3-.78c3.07-1.45,2.43-3.69,5-4.64a8.64,8.64,0,0,1,4.17-.15,13.47,13.47,0,0,1,4.2,1.44c3.43,1.75,3,2.76,5,3.35,2.4.69,3.42-.58,7-.25a16,16,0,0,1,5.36,1.54c3.8,1.69,3.56,3,7.36,5.42,4.27,2.72,6.29,2.16,8,4.38,1.2,1.54,1.92,4,1,5.67C866.68,83.68,856.39,82.9,834,83Z" transform="translate(-0.79 -0.46)"/><path class="cls-39" d="M366.72,207.73c-24.5.15-36.81,1.12-39.61-3.47a6,6,0,0,1-.19-5.89c1.37-2.35,3.78-2.12,6.06-4.88,2.09-2.51.78-3.52,3-6,.85-.95,3.12-3.46,6.06-3.45s3.81,2.36,7.21,2.3a8.22,8.22,0,0,0,3.41-.86c3.47-1.62,2.75-4.11,5.69-5.17a9.78,9.78,0,0,1,4.72-.16,15.16,15.16,0,0,1,4.76,1.6c3.89,1.94,3.36,3.07,5.68,3.73,2.72.77,3.87-.66,8-.29a18.38,18.38,0,0,1,6.06,1.72c4.32,1.88,4.05,3.34,8.34,6,4.84,3,7.13,2.4,9.1,4.87,1.37,1.72,2.19,4.42,1.14,6.32C403.77,208.44,392.11,207.56,366.72,207.73Z" transform="translate(-0.79 -0.46)"/><path class="cls-39" d="M234.58,246c-38.47.19-57.8,1.37-62.2-4.21-1-1.3-2.38-4.41-.3-7.16s5.93-2.58,9.53-5.92c3.27-3,1.21-4.28,4.76-7.32,1.34-1.15,4.9-4.2,9.53-4.18,4.45,0,6,2.86,11.31,2.78a15.75,15.75,0,0,0,5.36-1c5.46-2,4.32-5,8.93-6.28a20.16,20.16,0,0,1,7.42-.2,29.12,29.12,0,0,1,7.47,1.95c6.12,2.36,5.28,3.73,8.93,4.53,4.27.93,6.07-.8,12.51-.35a35.21,35.21,0,0,1,9.53,2.09c6.77,2.29,6.35,4,13.1,7.32,7.6,3.68,11.19,2.92,14.29,5.93,2.15,2.08,3.42,5.36,1.78,7.66C292.78,246.85,274.46,245.79,234.58,246Z" transform="translate(-0.79 -0.46)"/><path class="cls-39" d="M754.29,174.07c33.81.23,50.8,1.6,54.67-4.91.9-1.52,2.09-5.15.26-8.35s-5.21-3-8.37-6.92c-2.87-3.56-1.06-5-4.19-8.54-1.18-1.34-4.31-4.9-8.37-4.88s-5.25,3.34-9.94,3.25a11.06,11.06,0,0,1-4.71-1.22c-4.8-2.29-3.8-5.83-7.85-7.32a13.26,13.26,0,0,0-6.52-.24,21,21,0,0,0-6.57,2.27c-5.38,2.76-4.64,4.36-7.85,5.29-3.75,1.09-5.33-.93-11-.41a24.82,24.82,0,0,0-8.37,2.44c-6,2.67-5.58,4.73-11.52,8.55-6.67,4.29-9.83,3.4-12.56,6.91-1.88,2.43-3,6.27-1.57,8.95C703.14,175.08,719.25,173.84,754.29,174.07Z" transform="translate(-0.79 -0.46)"/><path class="cls-41" d="M684.38,273.94l7.83-22.17-14.75.13Z" transform="translate(-0.79 -0.46)"/><ellipse class="cls-42" cx="681.21" cy="250.78" rx="3.1" ry="4.11" transform="translate(399.24 919.55) rotate(-87.42)"/><ellipse class="cls-43" cx="687.45" cy="250.33" rx="4.13" ry="3.11"/><ellipse class="cls-44" cx="684.17" cy="246.5" rx="4.06" ry="3.06"/><path class="cls-45" d="M709,263.79v3H696.67v-3c0-2.85,2.75-5.16,6.14-5.16S709,260.94,709,263.79Z" transform="translate(-0.79 -0.46)"/><rect class="cls-42" x="701.13" y="279.66" width="1.77" height="8.55"/><path class="cls-43" d="M709,266.79v13.28H696.67V266.79Z" transform="translate(-0.79 -0.46)"/><ellipse class="cls-46" cx="705.13" cy="272.41" rx="0.47" ry="4.96"/><ellipse class="cls-46" cx="701.99" cy="272.41" rx="0.44" ry="4.96"/><ellipse class="cls-46" cx="698.84" cy="272.41" rx="0.44" ry="4.96"/><path class="cls-39" d="M133.39,174c-26.2.22-39.36,1.59-42.35-4.9a10.94,10.94,0,0,1-.21-8.33c1.47-3.32,4-3,6.49-6.9,2.22-3.55.82-5,3.24-8.52.91-1.33,3.34-4.88,6.49-4.87s4.07,3.33,7.7,3.25a7.17,7.17,0,0,0,3.65-1.22c3.72-2.29,2.95-5.81,6.08-7.3a8.08,8.08,0,0,1,5.06-.24,13.83,13.83,0,0,1,5.08,2.27c4.17,2.75,3.6,4.34,6.08,5.27,2.91,1.09,4.14-.93,8.52-.4a16.26,16.26,0,0,1,6.49,2.43c4.61,2.66,4.32,4.72,8.92,8.52,5.17,4.28,7.62,3.4,9.73,6.9,1.46,2.42,2.33,6.24,1.22,8.92C173,175,160.54,173.79,133.39,174Z" transform="translate(-0.79 -0.46)"/><path class="cls-39" d="M104,285.54c-26.2.22-39.36,1.59-42.36-4.9a10.91,10.91,0,0,1-.2-8.33c1.46-3.32,4-3,6.48-6.9,2.23-3.55.83-5,3.25-8.52.91-1.34,3.34-4.89,6.49-4.87s4.07,3.33,7.7,3.25A7.17,7.17,0,0,0,89,254.05c3.71-2.29,2.94-5.81,6.08-7.3a8,8,0,0,1,5-.24,13.67,13.67,0,0,1,5.09,2.26c4.17,2.76,3.6,4.35,6.08,5.28,2.91,1.09,4.14-.93,8.52-.41a16.15,16.15,0,0,1,6.48,2.44c4.62,2.66,4.33,4.71,8.93,8.52,5.17,4.28,7.62,3.4,9.73,6.89,1.46,2.43,2.33,6.25,1.21,8.93C143.58,286.54,131.1,285.31,104,285.54Z" transform="translate(-0.79 -0.46)"/><path class="cls-39" d="M116.57,78.9c-21.62.14-32.48,1-34.95-3.11a5.55,5.55,0,0,1-.17-5.3c1.21-2.11,3.34-1.9,5.36-4.38,1.83-2.25.68-3.17,2.67-5.41.76-.85,2.76-3.11,5.36-3.1s3.36,2.12,6.35,2.07a7.27,7.27,0,0,0,3-.78c3.06-1.45,2.42-3.69,5-4.64a8.64,8.64,0,0,1,4.17-.15,13.47,13.47,0,0,1,4.2,1.44c3.44,1.75,3,2.76,5,3.35,2.4.69,3.41-.59,7-.26A16,16,0,0,1,135,60.18c3.81,1.69,3.57,3,7.36,5.41,4.27,2.73,6.29,2.16,8,4.39,1.21,1.54,1.93,4,1,5.67C149.28,79.54,139,78.76,116.57,78.9Z" transform="translate(-0.79 -0.46)"/><path class="cls-39" d="M823.75,320c-21.62.14-32.48,1-35-3.12a5.48,5.48,0,0,1-.17-5.29c1.21-2.11,3.33-1.91,5.35-4.38,1.84-2.26.68-3.17,2.68-5.42.75-.85,2.75-3.1,5.35-3.09s3.36,2.11,6.36,2.06a7.24,7.24,0,0,0,3-.77c3.06-1.46,2.43-3.7,5-4.64a8.52,8.52,0,0,1,4.17-.15,13.08,13.08,0,0,1,4.19,1.44c3.44,1.74,3,2.76,5,3.35,2.4.69,3.42-.59,7-.26a15.69,15.69,0,0,1,5.35,1.55c3.81,1.69,3.57,3,7.37,5.41,4.27,2.72,6.29,2.16,8,4.38,1.2,1.54,1.92,4,1,5.67C856.45,320.65,846.15,319.87,823.75,320Z" transform="translate(-0.79 -0.46)"/><path class="cls-39" d="M941.92,141.82c-38.48.2-57.8,1.37-62.2-4.21-1-1.3-2.38-4.41-.31-7.15s5.94-2.58,9.53-5.93c3.27-3,1.21-4.28,4.77-7.32,1.34-1.15,4.9-4.2,9.52-4.18,4.46,0,6,2.86,11.32,2.79a16,16,0,0,0,5.36-1c5.45-2,4.32-5,8.93-6.27a20,20,0,0,1,7.42-.21,29.12,29.12,0,0,1,7.47,1.95c6.12,2.36,5.28,3.73,8.93,4.53,4.27.93,6.07-.8,12.5-.35a35.59,35.59,0,0,1,9.53,2.09c6.78,2.29,6.35,4.06,13.1,7.32,7.6,3.68,11.2,2.92,14.29,5.93,2.15,2.08,3.43,5.37,1.79,7.67C1000.12,142.69,981.79,141.63,941.92,141.82Z" transform="translate(-0.79 -0.46)"/><path class="cls-39" d="M979.65,286.86c38.94.28,58.51,2,63-6.23,1-1.92,2.41-6.52.31-10.59-2.18-4.22-6-3.81-9.65-8.76-3.31-4.51-1.22-6.34-4.82-10.83-1.36-1.7-5-6.21-9.64-6.19-4.51,0-6,4.23-11.45,4.13a12,12,0,0,1-5.43-1.55c-5.52-2.91-4.37-7.39-9-9.28-2.61-1.06-5.38-.63-7.51-.3a22.36,22.36,0,0,0-7.56,2.88c-6.19,3.49-5.34,5.52-9,6.7-4.32,1.38-6.14-1.18-12.65-.52a26.54,26.54,0,0,0-9.65,3.1c-6.85,3.38-6.42,6-13.26,10.82-7.69,5.45-11.32,4.32-14.46,8.77-2.17,3.08-3.47,7.94-1.81,11.34C920.75,288.14,939.3,286.57,979.65,286.86Z" transform="translate(-0.79 -0.46)"/><path class="cls-40" d="M980.11,262" transform="translate(-0.79 -0.46)"/></svg>