<svg id="Lag_1" data-name="Lag 1" xmlns="http://www.w3.org/2000/svg" viewBox="0 0 1066.96 1646.76"><defs><style>.cls-1,.cls-10,.cls-12,.cls-19,.cls-24,.cls-27,.cls-28,.cls-3,.cls-31,.cls-33,.cls-34,.cls-6{fill:none;}.cls-1,.cls-34{stroke:#b2b2b2;}.cls-1,.cls-10,.cls-11,.cls-12,.cls-13,.cls-19,.cls-21,.cls-24,.cls-27,.cls-28,.cls-29,.cls-3,.cls-30,.cls-31,.cls-32,.cls-33,.cls-34,.cls-40,.cls-41,.cls-42,.cls-43,.cls-44,.cls-45,.cls-5,.cls-6,.cls-8,.cls-9{stroke-miterlimit:10;}.cls-2{fill:#cce0e5;}.cls-3{stroke:#683c11;}.cls-4{fill:#b2b2b2;}.cls-43,.cls-5,.cls-8{fill:#84c0dc;}.cls-10,.cls-5,.cls-8{stroke:#19435a;}.cls-5,.cls-6{stroke-width:5px;}.cls-11,.cls-12,.cls-28,.cls-29,.cls-30,.cls-31,.cls-6{stroke:#575756;}.cls-7{fill:#509cc0;}.cls-28,.cls-33,.cls-8{stroke-width:2px;}.cls-9{fill:#2d2e83;stroke:#2d2e83;}.cls-11,.cls-13,.cls-18,.cls-37{fill:#1d1d1b;}.cls-13{stroke:#3c3c3b;}.cls-14{fill:#36a9e1;}.cls-15,.cls-45{fill:#dadada;}.cls-16{fill:#b17f4a;}.cls-17,.cls-29{fill:#9d9d9c;}.cls-19{stroke:#509cc0;}.cls-19,.cls-34{stroke-width:3px;}.cls-20,.cls-21{fill:#19435a;}.cls-21,.cls-24{stroke:#fff;}.cls-22{font-size:13.34px;}.cls-22,.cls-25,.cls-36{fill:#fff;}.cls-22,.cls-25{font-family:SignPainter-HouseScript, SignPainter;}.cls-23{letter-spacing:-0.03em;}.cls-25{font-size:68.56px;}.cls-26{letter-spacing:-0.03em;}.cls-27,.cls-32{stroke:#1d1d1b;}.cls-29,.cls-30{stroke-width:0.5px;}.cls-30{fill:#575756;}.cls-31{stroke-width:0.75px;}.cls-32{fill:#be1622;stroke-width:0.1px;}.cls-33{stroke:#878787;}.cls-35{fill:#3c3c3b;}.cls-36{font-size:23.92px;font-family:Copperplate;}.cls-37{opacity:0.21;}.cls-38,.cls-39{fill:#f6f6f6;}.cls-38{opacity:0.63;}.cls-40{fill:#8dd1e6;}.cls-40,.cls-41,.cls-42,.cls-43,.cls-44,.cls-45{stroke:#f6f6f6;stroke-width:0.25px;}.cls-41{fill:#009db8;}.cls-42{fill:#2d6f8d;}.cls-44{fill:#8ed1e6;}.cls-45{opacity:0.36;}</style></defs><title>cykel-mobil</title><path class="cls-1" d="M454,1324.44" transform="translate(1.18 0.58)"/><rect class="cls-2" width="1066.96" height="1646.76"/><path class="cls-3" d="M725.53,536.88" transform="translate(1.18 0.58)"/><polygon class="cls-4" points="569.22 1204.07 532.74 1224.21 530.78 1220.3 567.27 1200.15 569.22 1204.07"/><polygon class="cls-4" points="570.14 1187.78 529.3 1182.05 529.86 1177.66 570.7 1183.39 570.14 1187.78"/><rect class="cls-5" x="560.05" y="987.72" width="362.59" height="247.78"/><path class="cls-4" d="M745.3,1259.32v4.53H524V1150.73h8.88v108.59Z" transform="translate(1.18 0.58)"/><ellipse class="cls-6" cx="746.47" cy="1260.08" rx="74.25" ry="78.11"/><polygon class="cls-7" points="346.01 1115.91 342.78 1119.76 247.68 1233.1 243.63 1237.95 240.48 1237.62 236.76 1237.2 341.63 1112.21 342.02 1111.75 346.01 1115.91"/><polygon class="cls-7" points="363.94 1245.63 363.45 1250.94 362.76 1250.86 243.63 1237.95 240.48 1237.62 240.96 1232.38 247.68 1233.1 361.93 1245.41 363.94 1245.63"/><rect class="cls-4" x="557.01" y="753.45" width="7.22" height="231.08"/><path class="cls-8" d="M860.78,754.17H258.12c8.75-13.4,112.8-166.83,301.32-166.83S852,740.77,860.78,754.17Z" transform="translate(1.18 0.58)"/><path class="cls-9" d="M307.59,916.92" transform="translate(1.18 0.58)"/><path class="cls-10" d="M404.19,754.17a241.76,241.76,0,0,1,50.94-97.24,245.87,245.87,0,0,1,100.71-69.59" transform="translate(1.18 0.58)"/><path class="cls-10" d="M335.66,754.09c7.84-21,26.57-59.56,73.35-97.17,53.32-42.87,114.84-61.82,145-69.54" transform="translate(1.18 0.58)"/><path class="cls-10" d="M555.84,587.34c27.89,4.65,79.24,16.78,130.82,52.34,58.79,40.54,86.73,90,98.38,114.45" transform="translate(1.18 0.58)"/><path class="cls-10" d="M554,587.38c18.47,5.1,52.55,18,87.23,53.6,39.53,40.6,58.9,89.24,67,113.19" transform="translate(1.18 0.58)"/><path class="cls-10" d="M554,587.38c8.77,5.58,25.06,19.21,42.35,54.89,19.69,40.66,30.24,88.4,34.79,111.86" transform="translate(1.18 0.58)"/><path class="cls-10" d="M480.21,754.09c.13-8,2.39-25.41,17.89-61.37,17.66-41,43.16-84.3,55.93-105.34" transform="translate(1.18 0.58)"/><ellipse class="cls-11" cx="746.47" cy="1260.08" rx="6.09" ry="6.41"/><line class="cls-12" x1="694.69" y1="1316.04" x2="798.26" y2="1204.12"/><line class="cls-12" x1="746.47" y1="1181.99" x2="746.47" y2="1338.18"/><line class="cls-12" x1="820.71" y1="1260.08" x2="672.24" y2="1260.08"/><line class="cls-12" x1="693.26" y1="1204.86" x2="798.25" y2="1315.3"/><line class="cls-12" x1="677.64" y1="1231.59" x2="815.3" y2="1290.08"/><line class="cls-12" x1="677.06" y1="1288.51" x2="815.89" y2="1233.16"/><line class="cls-12" x1="719.12" y1="1188.23" x2="773.82" y2="1333.44"/><line class="cls-12" x1="772.84" y1="1187.19" x2="719.53" y2="1332.97"/><ellipse class="cls-6" cx="240.48" cy="1237.95" rx="93.29" ry="100.08"/><ellipse class="cls-13" cx="240.48" cy="1237.95" rx="7.66" ry="8.21"/><line class="cls-12" x1="175.42" y1="1309.64" x2="305.55" y2="1166.25"/><line class="cls-12" x1="240.48" y1="1137.89" x2="240.48" y2="1338.01"/><line class="cls-12" x1="333.76" y1="1237.95" x2="147.21" y2="1237.95"/><line class="cls-12" x1="173.63" y1="1167.19" x2="305.54" y2="1308.7"/><line class="cls-12" x1="153.99" y1="1201.44" x2="326.97" y2="1276.39"/><line class="cls-12" x1="153.26" y1="1274.38" x2="327.71" y2="1203.46"/><line class="cls-12" x1="206.12" y1="1145.89" x2="274.85" y2="1331.94"/><line class="cls-12" x1="273.62" y1="1144.56" x2="206.63" y2="1331.34"/><rect class="cls-14" x="523.5" y="1151.31" width="11.26" height="3.34"/><rect class="cls-7" x="524.69" y="1091.32" width="8.79" height="59.98"/><rect class="cls-14" x="523.5" y="1087.99" width="11.26" height="3.34"/><polygon class="cls-4" points="533.48 1076.12 533.48 1087.98 524.69 1087.98 524.69 1066.36 528.1 1066.36 533.46 1076.13 533.48 1076.12"/><polygon class="cls-4" points="533.48 1076.16 525.87 1080.79 510.3 1052.42 508.52 1049.17 514.93 1045.28 515.11 1045.47 517.82 1048.65 519.29 1050.37 519.31 1050.35 533.48 1076.16"/><polygon class="cls-15" points="541.97 1063.71 542.31 1063.71 542.31 1063.71 541.97 1063.71 541.97 1063.71"/><polygon class="cls-4" points="517.82 1048.65 515.9 1054.46 510.3 1052.42 494.35 1046.61 497.23 1037.87 513.53 1043.82 515.11 1045.47 517.82 1048.65"/><path class="cls-16" d="M494.6,1048.18l-42.68-2a1.73,1.73,0,0,1-1.59-1.84l.4-9.31a1.69,1.69,0,0,1,1.74-1.67l42.69,2a1.73,1.73,0,0,1,1.59,1.84l-.4,9.3A1.7,1.7,0,0,1,494.6,1048.18Z" transform="translate(1.18 0.58)"/><polygon class="cls-7" points="525.46 1098.93 345.02 1124.01 344.33 1117.67 524.77 1092.6 525.46 1098.93"/><polygon class="cls-7" points="528.93 1120.27 526.74 1122.04 370.53 1247.53 366.38 1250.86 362.76 1245.15 369.36 1239.86 525.33 1114.57 528.93 1120.27"/><polygon class="cls-7" points="369.8 1248.09 365.91 1251.21 363.45 1250.94 362.76 1250.86 361.93 1245.41 342.78 1119.76 341.63 1112.21 341.14 1108.96 348.39 1107.61 368.62 1240.39 369.79 1248.07 369.8 1248.09"/><polygon class="cls-14" points="371.45 1246.22 371.3 1246.26 371.44 1246.14 371.45 1246.22"/><polygon class="cls-14" points="350.32 1107.3 339.24 1109.38 338.69 1105.82 349.78 1103.74 350.32 1107.3"/><polygon class="cls-17" points="341.77 1105.68 338.68 1085.39 343.43 1084.51 346.52 1104.79 341.77 1105.68"/><path class="cls-16" d="M339.3,1069.88a91.32,91.32,0,0,0-18.53,1.72c-1.82.37-3.9.85-5.46,2.75-2.49,3-2.76,8.53-.51,12s6.53,3.86,10.88,4.13a28.24,28.24,0,0,0,10.81-1.7,37,37,0,0,0,5.12-2.09c1,0,2.92-.14,5.3-.16,13.15-.16,19.71.09,23,.1,2.11,0,4.32,0,6.18-1.09s3.2-3.61,2.38-5.74c-.72-1.89-2.77-2.8-3.93-3.21a119.71,119.71,0,0,0-35.22-6.73h0c-9.65,0-15.69.6-18.53,1.72" transform="translate(1.18 0.58)"/><polygon class="cls-7" points="526.73 1122.07 369.8 1248.09 365.63 1251.44 369.79 1248.07 526.59 1121.83 526.73 1122.07"/><rect class="cls-18" x="579.3" y="720.72" height="0.31"/><path class="cls-19" d="M662.23,1241.33c8.22-40.44,41.51-69.84,79.89-71.21,40.42-1.45,77,28.56,85.67,71.21" transform="translate(1.18 0.58)"/><path class="cls-19" d="M136.34,1211.6c10.17-48.83,51.41-84.34,99-86,50.08-1.75,95.33,34.49,106.13,86" transform="translate(1.18 0.58)"/><polygon class="cls-20" points="861.96 754.77 842.96 769.1 805.06 769.08 786.22 754.75 861.92 754.75 861.96 754.77"/><polygon class="cls-20" points="788.12 754.77 769.12 769.1 731.22 769.08 712.38 754.75 788.08 754.75 788.12 754.77"/><polygon class="cls-20" points="713.1 754.77 694.1 769.1 656.19 769.08 637.35 754.75 713.06 754.75 713.1 754.77"/><polygon class="cls-20" points="639.98 754.77 620.98 769.1 583.08 769.08 564.24 754.75 639.94 754.75 639.98 754.77"/><polygon class="cls-20" points="557.01 754.77 538.01 769.1 500.11 769.08 481.27 754.75 556.97 754.75 557.01 754.77"/><polygon class="cls-20" points="483.18 754.77 464.18 769.1 426.27 769.08 407.43 754.75 483.14 754.75 483.18 754.77"/><polygon class="cls-20" points="408.15 754.77 389.15 769.1 351.25 769.08 332.41 754.75 408.11 754.75 408.15 754.77"/><polygon class="cls-20" points="335.03 754.77 316.03 769.1 278.13 769.08 259.29 754.75 334.99 754.75 335.03 754.77"/><ellipse class="cls-21" cx="560.63" cy="698.31" rx="39.62" ry="39.74"/><text class="cls-22" transform="translate(545.01 725.4)">Hje<tspan class="cls-23" x="13.15" y="0">m</tspan><tspan x="20.29" y="0">-IS</tspan></text><path class="cls-24" d="M560.69,710.67a115.06,115.06,0,0,1,1-24.53c.48-3.15,1.14-6.41,3-9s5.37-4.23,8.34-3.09c3.52,1.33,4.78,5.71,4.76,9.48a7.82,7.82,0,0,1-.72,3.68c-1.26,2.33-4.18,3.07-6.77,3.58" transform="translate(1.18 0.58)"/><path class="cls-24" d="M556.41,710.67a117.72,117.72,0,0,0-1-24.53c-.47-3.15-1.11-6.41-3-9s-5.26-4.23-8.17-3.09c-3.45,1.33-4.68,5.71-4.66,9.48a7.94,7.94,0,0,0,.7,3.68c1.24,2.33,4.1,3.07,6.64,3.58" transform="translate(1.18 0.58)"/><path class="cls-24" d="M563.84,710.67a84.77,84.77,0,0,1,2.43-28,9.26,9.26,0,0,1,1.77-4,3.27,3.27,0,0,1,3.87-1,3.74,3.74,0,0,1,1.28,1.34,5.71,5.71,0,0,1,.6,4.95,3.81,3.81,0,0,1-4,2.49" transform="translate(1.18 0.58)"/><path class="cls-24" d="M553.32,710.67a81.24,81.24,0,0,0-2.53-28,9.14,9.14,0,0,0-1.84-4,3.52,3.52,0,0,0-4-1,3.79,3.79,0,0,0-1.33,1.34A5.5,5.5,0,0,0,543,684a4,4,0,0,0,4.15,2.49" transform="translate(1.18 0.58)"/><text class="cls-25" transform="translate(587.8 1077.17) scale(1.26 1)">Hje<tspan class="cls-26" x="67.6" y="0">m</tspan><tspan x="104.28" y="0">-IS</tspan></text><path class="cls-3" d="M885.16,1049.7" transform="translate(1.18 0.58)"/><path class="cls-27" d="M493.19,848.61" transform="translate(1.18 0.58)"/><path class="cls-28" d="M491.37,798.49a37.46,37.46,0,0,1,18-14.68c6.94-2.8,14.27-3.75,21.56-4.34a221,221,0,0,1,25-.58" transform="translate(1.18 0.58)"/><path class="cls-29" d="M489.87,796.87a13.8,13.8,0,0,0-5.71,3,12.73,12.73,0,0,0-3.4,4.83,13.58,13.58,0,0,0-.8,3.59,16.55,16.55,0,0,0,0,2.65,46.48,46.48,0,0,1,0,6.15,24.42,24.42,0,0,1-1.5,6.53,28.92,28.92,0,0,1-7.3,10.89.83.83,0,0,0-.19.72.9.9,0,0,0,.47.49,2.35,2.35,0,0,0,1.11.28H514.5a1.11,1.11,0,0,0,.76-.36.93.93,0,0,0,.17-.67,1.59,1.59,0,0,0-.53-1c-.86-.81-1.56-1.78-2.49-2.52s-1.45-1.82-2.67-4.12a28.35,28.35,0,0,1-2.4-5.68,26.56,26.56,0,0,1-1-8.21c.11-2.92.64-4,.13-6.52a12.06,12.06,0,0,0-1.28-3.66,13.79,13.79,0,0,0-9.3-6.52,2.2,2.2,0,0,0,0-.8,1.88,1.88,0,0,0-.07-.37,2.47,2.47,0,0,0-.67-1.1,2.72,2.72,0,0,0-1.47-.71,3,3,0,0,0-1.69.29,2.67,2.67,0,0,0-1.15.84,2.39,2.39,0,0,0-.41,1.8Z" transform="translate(1.18 0.58)"/><path class="cls-30" d="M500.82,841l-1.71-4.57h3.14l1.29,3.85a3.76,3.76,0,0,1,1.59.46,3.47,3.47,0,0,1,1.4,1.44,3.35,3.35,0,0,1,.23,2.47,3.67,3.67,0,0,1-1.7,2.15,4,4,0,0,1-2.58.43,3.58,3.58,0,0,1-2.2-1.15,3.33,3.33,0,0,1-.71-2.18,3,3,0,0,1,.49-2.08C500.19,841.62,500.82,841,500.82,841Z" transform="translate(1.18 0.58)"/><path class="cls-27" d="M491.37,798.49" transform="translate(1.18 0.58)"/><path class="cls-31" d="M494.12,836a81.77,81.77,0,0,0,1.75,37.07c3.94,13.78,11.52,26.37,13.59,40.61.83,5.69.71,11.7-1.43,17-1.51,3.72-3.94,6.9-6,10.28a64.7,64.7,0,0,0-8.11,46.34c1.08,5.27,2.82,10.38,3.49,15.72.9,7.17-.25,14.77-4,20.81-2.36,3.86-5.66,7-8,10.8s-3.76,8.94-1.79,13" transform="translate(1.18 0.58)"/><path class="cls-31" d="M519.89,782.35a48.77,48.77,0,0,0,36,24.18" transform="translate(1.18 0.58)"/><path class="cls-31" d="M487.61,1034.76a34.07,34.07,0,0,0-1.42,6.6,11.51,11.51,0,0,0,1.18,6.56" transform="translate(1.18 0.58)"/><path class="cls-32" d="M586.76,712.61l-9.46,1.14a2.54,2.54,0,0,1-2.78-2.32l-.42-3.83a2.61,2.61,0,0,1,2.21-2.92l9.47-1.14a2.53,2.53,0,0,1,2.77,2.32l.42,3.83A2.61,2.61,0,0,1,586.76,712.61Z" transform="translate(1.18 0.58)"/><line class="cls-24" x1="578.91" y1="705.04" x2="579.9" y2="714.11"/><path class="cls-4" d="M364,1226c-10.35,0-18.75,8.84-18.75,19.73s8.4,19.72,18.75,19.72,18.75-8.83,18.75-19.72S374.38,1226,364,1226Zm0,33.69c-7.34,0-13.28-6.25-13.28-14s5.94-14,13.28-14,13.27,6.25,13.27,14S371.36,1259.64,364,1259.64Z" transform="translate(1.18 0.58)"/><line class="cls-24" x1="589.93" y1="708.3" x2="575.48" y2="710.04"/><path class="cls-7" d="M916.77,1162.83H563.06v-37.28a1334.56,1334.56,0,0,1,353.71,0Z" transform="translate(1.18 0.58)"/><path class="cls-33" d="M383.14,1245.68A20.94,20.94,0,0,1,375,1261.9c-6.52,4.76-13.91,2.7-26.75.43-11.74-2.08-23.68-2.61-35.46-4.45-26.57-4.14-75.23-8.3-80-15.5a10.45,10.45,0,0,1-1.74-5,10.86,10.86,0,0,1,1.95-5.87c4.82-7.06,48.93-3.65,81.57-4.92,12.47-.48,25,.69,37.43.32,11.87-.36,20.68-1.07,26.43,5.25C383.17,1237.42,383.15,1244.63,383.14,1245.68Z" transform="translate(1.18 0.58)"/><path class="cls-1" d="M457.11,1316.29" transform="translate(1.18 0.58)"/><line class="cls-34" x1="365.64" y1="1246.92" x2="384.32" y2="1275.65"/><line class="cls-34" x1="373.79" y1="1276.09" x2="395.62" y2="1276.01"/><ellipse class="cls-35" cx="365.2" cy="1246.26" rx="5.75" ry="6.05"/><text class="cls-36" transform="translate(632.21 1148.12) scale(0.95 1)">LYDEN AF DANSK IS</text><ellipse class="cls-37" cx="517.57" cy="1346.71" rx="468.6" ry="8.69"/><path class="cls-38" d="M181,289.16c58,.49,87.07,3.49,93.7-10.74,1.54-3.33,3.58-11.27.45-18.28-3.24-7.28-8.94-6.58-14.35-15.12-4.93-7.79-1.82-10.93-7.18-18.69-2-2.93-7.39-10.71-14.35-10.68-6.71,0-9,7.31-17,7.12a16,16,0,0,1-8.08-2.67c-8.21-5-6.51-12.74-13.45-16-3.89-1.83-8-1.09-11.18-.52-1.15.2-5.22,1-11.25,5-9.22,6-8,9.53-13.45,11.56-6.43,2.39-9.15-2-18.84-.89-6.31.75-10.74,3.28-14.35,5.34-10.21,5.83-9.57,10.34-19.74,18.69-11.45,9.39-16.86,7.45-21.53,15.12-3.23,5.32-5.16,13.7-2.69,19.57C93.27,291.36,120.88,288.66,181,289.16Z" transform="translate(1.18 0.58)"/><path class="cls-39" d="M233.21,281.13" transform="translate(1.18 0.58)"/><path class="cls-38" d="M922,443.6c-45.17.37-67.86,2.65-73-8.16-1.2-2.52-2.79-8.55-.35-13.87,2.53-5.53,7-5,11.18-11.49,3.84-5.9,1.42-8.29,5.6-14.18,1.57-2.23,5.75-8.13,11.18-8.11,5.23,0,7,5.55,13.28,5.41a12.64,12.64,0,0,0,6.3-2c6.4-3.81,5.07-9.68,10.48-12.16,3-1.39,6.25-.83,8.71-.39.9.15,4.07.77,8.77,3.77,7.19,4.58,6.2,7.23,10.49,8.78,5,1.81,7.12-1.54,14.68-.68a28.42,28.42,0,0,1,11.18,4.06c8,4.43,7.46,7.85,15.38,14.18,8.93,7.13,13.14,5.66,16.78,11.49,2.52,4,4,10.4,2.1,14.86C990.32,445.27,968.8,443.22,922,443.6Z" transform="translate(1.18 0.58)"/><path class="cls-38" d="M948.65,576.92c-37.27.24-56,1.68-60.26-5.18-1-1.61-2.3-5.44-.29-8.82s5.75-3.17,9.23-7.3c3.17-3.75,1.17-5.27,4.61-9,1.3-1.41,4.76-5.17,9.23-5.15s5.8,3.52,11,3.43a12.7,12.7,0,0,0,5.2-1.28c5.28-2.42,4.18-6.15,8.65-7.73a15.26,15.26,0,0,1,7.19-.25,23.4,23.4,0,0,1,7.23,2.4c5.93,2.91,5.12,4.59,8.66,5.58,4.13,1.14,5.88-1,12.11-.43a28.31,28.31,0,0,1,9.23,2.57c6.57,2.81,6.15,5,12.69,9,7.37,4.53,10.85,3.59,13.85,7.29,2.08,2.57,3.32,6.61,1.73,9.45C1005,578,987.28,576.68,948.65,576.92Z" transform="translate(1.18 0.58)"/><path class="cls-38" d="M474,270.17c-36.46.27-54.77,1.94-58.94-6-1-1.85-2.26-6.27-.29-10.17,2-4.05,5.62-3.66,9-8.42,3.1-4.33,1.15-6.08,4.51-10.39,1.27-1.63,4.65-6,9-5.94,4.22,0,5.67,4.06,10.72,4a10.84,10.84,0,0,0,5.08-1.49c5.17-2.79,4.1-7.09,8.47-8.91,2.45-1,5-.61,7-.29a20.61,20.61,0,0,1,7.08,2.76c5.8,3.36,5,5.31,8.46,6.44,4.05,1.33,5.76-1.13,11.85-.49a24.35,24.35,0,0,1,9,3c6.42,3.24,6,5.75,12.42,10.39,7.2,5.23,10.61,4.15,13.54,8.42,2,3,3.25,7.62,1.69,10.89C529.12,271.39,511.75,269.89,474,270.17Z" transform="translate(1.18 0.58)"/><path class="cls-38" d="M182.28,585.21c-57.26.33-86,2.36-92.57-7.26-1.53-2.25-3.54-7.62-.46-12.36,3.21-4.92,8.84-4.45,14.18-10.22,4.87-5.26,1.81-7.39,7.1-12.63,2-2,7.3-7.25,14.18-7.22,6.63,0,8.9,4.94,16.84,4.81a20.92,20.92,0,0,0,8-1.8c8.12-3.39,6.44-8.62,13.3-10.83,3.84-1.24,7.91-.74,11-.35A38.8,38.8,0,0,1,185,530.71c9.11,4.08,7.86,6.44,13.29,7.82,6.35,1.61,9-1.38,18.61-.6a46.47,46.47,0,0,1,14.18,3.6c10.09,4,9.46,7,19.5,12.63,11.31,6.35,16.66,5,21.27,10.23,3.2,3.6,5.1,9.26,2.66,13.23C268.91,586.7,241.63,584.87,182.28,585.21Z" transform="translate(1.18 0.58)"/><path class="cls-38" d="M592.75,429.7c58.3.37,87.58,2.65,94.25-8.18,1.55-2.53,3.6-8.57.46-13.91-3.27-5.54-9-5-14.44-11.51-5-5.93-1.83-8.32-7.22-14.23-2-2.23-7.43-8.15-14.43-8.12-6.75,0-9.06,5.56-17.15,5.41a19.42,19.42,0,0,1-8.12-2c-8.26-3.82-6.55-9.7-13.53-12.19-3.92-1.39-8.06-.83-11.24-.4A36.57,36.57,0,0,0,590,368.33c-9.27,4.59-8,7.25-13.53,8.8-6.47,1.82-9.21-1.54-19-.67a43.62,43.62,0,0,0-14.44,4.06c-10.27,4.44-9.62,7.87-19.85,14.22-11.52,7.15-17,5.67-21.66,11.52-3.25,4-5.19,10.42-2.7,14.9C504.56,431.38,532.33,429.32,592.75,429.7Z" transform="translate(1.18 0.58)"/><path class="cls-40" d="M839.15,1066.39q7.38-23.34,14.74-46.67l-27.77.26Z" transform="translate(1.18 0.58)"/><ellipse class="cls-41" cx="833.18" cy="1017.62" rx="6.52" ry="7.74" transform="translate(-242.75 1772.9) rotate(-85.71)"/><ellipse class="cls-42" cx="847.59" cy="1018.22" rx="7.78" ry="6.55"/><ellipse class="cls-43" cx="841.43" cy="1010.15" rx="7.64" ry="6.44"/><path class="cls-44" d="M885.43,1045v6.3H862.3V1045c0-6,5.18-10.88,11.56-10.88S885.43,1039,885.43,1045Z" transform="translate(1.18 0.58)"/><rect class="cls-41" x="873.37" y="1079.98" width="3.34" height="18.01"/><path class="cls-42" d="M885.43,1051.33v28H862.3v-28Z" transform="translate(1.18 0.58)"/><ellipse class="cls-45" cx="880.89" cy="1064.72" rx="0.89" ry="10.45"/><ellipse class="cls-45" cx="874.98" cy="1064.72" rx="0.82" ry="10.45"/><ellipse class="cls-45" cx="869.04" cy="1064.72" rx="0.82" ry="10.45"/><path class="cls-38" d="M407.43,537.28c-39,.38-58.58,2.74-63-8.46-1-2.62-2.41-8.86-.31-14.38,2.18-5.73,6-5.18,9.66-11.9,3.31-6.13,1.22-8.6,4.83-14.71,1.36-2.3,5-8.43,9.65-8.4,4.52,0,6.06,5.75,11.47,5.6a9.74,9.74,0,0,0,5.43-2.1c5.53-3.94,4.38-10,9.05-12.6,2.62-1.44,5.39-.86,7.52-.41.78.16,3.52.81,7.57,3.91,6.21,4.75,5.36,7.5,9.06,9.1,4.32,1.88,6.15-1.6,12.67-.7,4.25.59,7.23,2.58,9.66,4.2,6.86,4.59,6.43,8.14,13.27,14.71,7.71,7.39,11.35,5.86,14.49,11.9,2.17,4.18,3.47,10.78,1.81,15.4C466.42,539,447.84,536.88,407.43,537.28Z" transform="translate(1.18 0.58)"/><path class="cls-38" d="M947.73,752.5c41.81.36,62.81,2.63,67.6-8.12,1.11-2.51,2.58-8.51.33-13.81-2.35-5.51-6.45-5-10.36-11.43-3.55-5.89-1.31-8.26-5.18-14.12-1.45-2.22-5.33-8.1-10.35-8.07-4.84,0-6.5,5.52-12.29,5.38a11.22,11.22,0,0,1-5.83-2c-5.93-3.79-4.69-9.63-9.7-12.1-2.81-1.39-5.78-.83-8.07-.4-.83.16-3.76.78-8.11,3.76-6.65,4.56-5.74,7.2-9.71,8.74-4.64,1.8-6.6-1.54-13.59-.67a25.15,25.15,0,0,0-10.35,4c-7.37,4.41-6.9,7.82-14.24,14.12-8.26,7.1-12.16,5.63-15.53,11.43-2.33,4-3.72,10.35-1.94,14.79C884.48,754.16,904.4,752.12,947.73,752.5Z" transform="translate(1.18 0.58)"/><path class="cls-38" d="M741.8,561.89c-28.44.18-42.72,1.27-46-3.89a6.57,6.57,0,0,1-.22-6.62c1.59-2.64,4.39-2.38,7-5.48,2.42-2.82.9-4,3.52-6.77,1-1.06,3.63-3.88,7.05-3.87s4.42,2.65,8.36,2.58a9.75,9.75,0,0,0,4-1c4-1.82,3.2-4.62,6.61-5.81a11.81,11.81,0,0,1,5.48-.18,18,18,0,0,1,5.52,1.8c4.52,2.18,3.91,3.45,6.6,4.19,3.16.86,4.49-.74,9.25-.33a21.71,21.71,0,0,1,7,1.94c5,2.11,4.7,3.74,9.69,6.77,5.61,3.4,8.27,2.7,10.56,5.48,1.59,1.92,2.53,5,1.32,7.09C784.83,562.69,771.28,561.71,741.8,561.89Z" transform="translate(1.18 0.58)"/><path class="cls-38" d="M839.58,263.88c58,.49,87.07,3.48,93.7-10.75,1.55-3.32,3.58-11.26.46-18.27-3.25-7.28-9-6.58-14.36-15.13-4.92-7.78-1.82-10.92-7.17-18.68-2-2.93-7.39-10.71-14.36-10.68-6.71,0-9,7.31-17,7.12a15.89,15.89,0,0,1-8.07-2.67c-8.22-5-6.51-12.74-13.46-16-3.89-1.84-8-1.1-11.17-.53-1.16.21-5.23,1-11.25,5-9.22,6-8,9.53-13.46,11.57-6.43,2.38-9.15-2-18.84-.89-6.31.75-10.74,3.28-14.35,5.34C780,205.1,780.64,209.61,770.47,218c-11.44,9.4-16.86,7.45-21.53,15.13-3.23,5.32-5.16,13.7-2.69,19.57C751.9,266.08,779.51,263.38,839.58,263.88Z" transform="translate(1.18 0.58)"/><path class="cls-38" d="M172,814.19c-57.27.33-86,2.35-92.58-7.27-1.53-2.24-3.54-7.61-.45-12.35,3.2-4.92,8.83-4.45,14.18-10.22,4.87-5.26,1.8-7.39,7.09-12.63,2-2,7.3-7.25,14.18-7.22,6.63,0,8.9,4.94,16.84,4.81a21,21,0,0,0,8-1.8c8.11-3.4,6.43-8.62,13.29-10.83,3.85-1.24,7.92-.74,11-.35a38.8,38.8,0,0,1,11.12,3.36c9.11,4.08,7.86,6.44,13.29,7.82,6.36,1.61,9-1.38,18.62-.61a46.89,46.89,0,0,1,14.18,3.61c10.08,4,9.45,7,19.5,12.63,11.31,6.35,16.66,5,21.27,10.23,3.19,3.59,5.1,9.26,2.66,13.23C258.65,815.68,231.37,813.85,172,814.19Z" transform="translate(1.18 0.58)"/><path class="cls-38" d="M706.77,889c-57.27.33-86,2.36-92.58-7.26-1.53-2.25-3.54-7.62-.45-12.36,3.2-4.92,8.83-4.45,14.18-10.22,4.87-5.26,1.8-7.39,7.09-12.63,2-2,7.3-7.24,14.18-7.22,6.63,0,8.9,4.94,16.84,4.81a21,21,0,0,0,8-1.8c8.12-3.39,6.43-8.62,13.29-10.83,3.85-1.24,7.92-.74,11-.35a38.8,38.8,0,0,1,11.12,3.36c9.11,4.08,7.86,6.44,13.29,7.82,6.36,1.61,9-1.38,18.62-.6a46.63,46.63,0,0,1,14.18,3.6c10.08,4,9.45,7,19.5,12.64,11.31,6.34,16.66,5,21.27,10.22,3.19,3.6,5.1,9.26,2.66,13.23C793.4,890.45,766.12,888.62,706.77,889Z" transform="translate(1.18 0.58)"/><path class="cls-38" d="M358.61,892.94c-28.44.17-42.73,1.26-46-3.9a6.59,6.59,0,0,1-.23-6.62c1.59-2.64,4.39-2.38,7-5.48,2.42-2.82.9-4,3.53-6.77,1-1.06,3.62-3.88,7-3.86s4.42,2.64,8.36,2.57a9.86,9.86,0,0,0,4-1c4-1.82,3.19-4.62,6.6-5.81a11.81,11.81,0,0,1,5.48-.18,17.94,17.94,0,0,1,5.52,1.8c4.53,2.18,3.91,3.45,6.61,4.19,3.15.86,4.48-.74,9.24-.33a21.63,21.63,0,0,1,7,1.94c5,2.11,4.7,3.74,9.69,6.77,5.62,3.4,8.27,2.7,10.56,5.48,1.59,1.92,2.54,5,1.32,7.09C401.63,893.73,388.08,892.75,358.61,892.94Z" transform="translate(1.18 0.58)"/><path class="cls-38" d="M156.86,960.13c41.81.36,62.81,2.63,67.59-8.13,1.11-2.51,2.58-8.51.33-13.81-2.34-5.5-6.45-5-10.35-11.43-3.56-5.88-1.32-8.25-5.18-14.12-1.46-2.21-5.33-8.09-10.35-8.06-4.85,0-6.5,5.51-12.3,5.37a11.13,11.13,0,0,1-5.82-2c-5.93-3.79-4.7-9.63-9.71-12.11-2.81-1.38-5.78-.82-8.06-.39-.84.16-3.77.78-8.12,3.76-6.65,4.56-5.74,7.2-9.71,8.74-4.63,1.8-6.59-1.54-13.58-.67a25.2,25.2,0,0,0-10.36,4c-7.36,4.41-6.9,7.81-14.23,14.12-8.26,7.1-12.17,5.63-15.54,11.43-2.33,4-3.72,10.35-1.94,14.79C93.61,961.79,113.52,959.75,156.86,960.13Z" transform="translate(1.18 0.58)"/><path class="cls-38" d="M948.67,945c-39,.38-58.58,2.74-63-8.46-1-2.61-2.41-8.86-.31-14.38,2.19-5.73,6-5.18,9.66-11.9,3.31-6.12,1.23-8.6,4.83-14.7,1.36-2.31,5-8.43,9.65-8.4,4.52,0,6.06,5.74,11.47,5.6a9.74,9.74,0,0,0,5.43-2.1c5.53-4,4.38-10,9.06-12.6,2.61-1.45,5.38-.86,7.51-.41.78.16,3.52.8,7.57,3.91,6.21,4.75,5.36,7.5,9.06,9.1,4.32,1.87,6.15-1.6,12.67-.7,4.25.58,7.23,2.58,9.66,4.2,6.87,4.59,6.43,8.14,13.27,14.7,7.71,7.39,11.35,5.86,14.49,11.9,2.18,4.19,3.47,10.78,1.81,15.41C1007.66,946.69,989.08,944.56,948.67,945Z" transform="translate(1.18 0.58)"/><path class="cls-38" d="M247.4,411.23c-37.27.24-56,1.68-60.26-5.18-1-1.61-2.31-5.44-.3-8.82s5.76-3.18,9.24-7.3c3.16-3.75,1.17-5.27,4.61-9,1.3-1.41,4.75-5.17,9.23-5.15,4.32,0,5.79,3.52,11,3.43a12.41,12.41,0,0,0,5.19-1.29c5.29-2.42,4.19-6.14,8.66-7.72a15.1,15.1,0,0,1,7.18-.25,23.57,23.57,0,0,1,7.24,2.39c5.93,2.92,5.12,4.6,8.65,5.58,4.14,1.15,5.89-1,12.12-.42a28.06,28.06,0,0,1,9.23,2.57c6.56,2.81,6.15,5,12.69,9,7.36,4.54,10.84,3.6,13.85,7.3,2.08,2.57,3.32,6.61,1.73,9.44C303.78,412.29,286,411,247.4,411.23Z" transform="translate(1.18 0.58)"/></svg>