<svg xmlns="http://www.w3.org/2000/svg" viewBox="0 0 155.63 156.84"><defs><style>.cls-1{fill:#cce0e5;stroke:#85c0dc;}.cls-1,.cls-2{stroke-miterlimit:10;}.cls-2,.cls-3{fill:#84c0dc;}.cls-2{stroke:#fff;}</style></defs><title>Aktiv 10</title><g id="Lag_2" data-name="Lag 2"><g id="Lag_1-2" data-name="Lag 1"><ellipse class="cls-1" cx="77.82" cy="78.42" rx="77.32" ry="77.92"/><ellipse class="cls-2" cx="78.41" cy="75.7" rx="30.79" ry="29.94"/><polygon class="cls-3" points="85.65 112.64 78.52 144.43 71.19 112.39 85.65 112.39 85.65 112.64"/><polygon class="cls-3" points="55.44 107.24 26.78 124.15 45.66 96.91 55.63 107.07 55.44 107.24"/><polygon class="cls-3" points="40.19 82.78 7.38 76.03 40.38 68.75 40.46 82.77 40.19 82.78"/><polygon class="cls-3" points="112.58 96.57 130.63 124 102.14 106.28 112.4 96.39 112.58 96.57"/><polygon class="cls-3" points="71.19 38.76 78.27 6.96 85.65 38.99 71.19 39.02 71.19 38.76"/><polygon class="cls-3" points="116.66 68.75 149.44 75.7 116.39 82.77 116.4 68.75 116.66 68.75"/><polygon class="cls-3" points="103.69 45.03 133.59 30.27 112.64 56.05 103.49 45.19 103.69 45.03"/><polygon class="cls-3" points="44.65 54.03 28.47 25.53 55.72 45.01 44.82 54.23 44.65 54.03"/></g></g></svg>