<svg xmlns="http://www.w3.org/2000/svg" viewBox="0 0 155.63 156.84"><defs><style>.cls-1{fill:#cce0e5;stroke:#84c0dc;}.cls-1,.cls-3{stroke-miterlimit:10;}.cls-2,.cls-3{fill:#84c0dc;}.cls-3{stroke:#fff;}.cls-4{fill:#85c0dc;}</style></defs><title>Aktiv 12</title><g id="Lag_2" data-name="Lag 2"><g id="Lag_1-2" data-name="Lag 1"><ellipse class="cls-1" cx="77.82" cy="78.42" rx="77.32" ry="77.92"/><path class="cls-2" d="M76.37,125.17,102,49.9l-48.27.42Z"/><ellipse class="cls-3" cx="65.99" cy="46.51" rx="13.45" ry="10.52"/><ellipse class="cls-3" cx="89.58" cy="46.56" rx="13.51" ry="10.57"/><ellipse class="cls-3" cx="78.28" cy="33.54" rx="13.28" ry="10.38"/><path class="cls-4" d="M86.07,113.76c4.51,1,8,4.18,8.3,9v-4.91c-1.78,17.24-34.19,17.76-36.45.68v4.91c.23-5.07,3.69-8.18,8.24-9.77.55-.2-.49-4.83,0-5-7,2.43-9,8.08-8.24,14.86,1.07,9.92,12.73,12.79,20.95,12.13,7.87-.63,15.23-5.24,15.52-13.79.21-6.23-1.48-11.53-8.33-13.08.33.07-.39,4.91,0,5Z"/></g></g></svg>