<svg xmlns="http://www.w3.org/2000/svg" viewBox="0 0 155.63 156.84"><defs><style>.cls-1{fill:#cce0e5;}.cls-1,.cls-3{stroke:#85c0dc;}.cls-1,.cls-3,.cls-4{stroke-miterlimit:10;}.cls-2,.cls-4{fill:#84c0dc;}.cls-3{fill:none;stroke-width:3px;}.cls-4{stroke:#fff;}.cls-5{fill:#fff;}</style></defs><title>Aktiv 11</title><g id="Lag_2" data-name="Lag 2"><g id="Lag_1-2" data-name="Lag 1"><ellipse class="cls-1" cx="77.82" cy="78.42" rx="77.32" ry="77.92"/><rect class="cls-2" x="54.11" y="125.78" width="47.41" height="9.22"/><path class="cls-2" d="M101.52,124.71H54.11A49.08,49.08,0,0,0,67.94,110.9a39.87,39.87,0,0,0,5.74-14.11l4.07.52h.14l4.5-.32A37.33,37.33,0,0,0,87.7,110.9,46,46,0,0,0,101.52,124.71Z"/><path class="cls-2" d="M108.9,33.4V69.17c0,16.15-13.91,29.24-31.08,29.24C62.29,98.41,49.41,87.7,47.1,73.7a27,27,0,0,1-.37-4.53V33.4Z"/><path class="cls-3" d="M49.36,75.45C32.63,68.11,26.7,53.51,30.77,46S48.06,38.64,49,38.65V70.92A27,27,0,0,0,49.36,75.45Z"/><path class="cls-3" d="M105,75.44c16.84-7.09,23-21.6,19-29.17-3.88-7.41-17.18-7.62-18.11-7.62l-.49,32.27A27.81,27.81,0,0,1,105,75.44Z"/><polygon class="cls-4" points="86.25 70.07 77.84 65.57 69.39 70 71.04 60.55 64.25 53.82 73.68 52.48 77.93 43.89 82.11 52.52 91.53 53.93 84.68 60.6 86.25 70.07"/><rect class="cls-5" x="54.11" y="124.71" width="47.41" height="1.07"/></g></g></svg>