<svg id="Lag_1" data-name="Lag 1" xmlns="http://www.w3.org/2000/svg" viewBox="0 0 221.76 198.96"><defs><style>.cls-1{fill:#19435a;stroke:#85c0dc;stroke-width:3px;}.cls-1,.cls-5,.cls-6,.cls-7{stroke-miterlimit:10;}.cls-2{font-size:32.89px;fill:#fff;font-family:SignPainter-HouseScript, SignPainter;}.cls-3{letter-spacing:-0.03em;}.cls-4{letter-spacing:0em;}.cls-5,.cls-7{fill:none;stroke:#fff;}.cls-5{stroke-width:6px;}.cls-6{fill:#be1622;stroke:#1d1d1b;stroke-width:0.1px;}.cls-7{stroke-width:2px;}</style></defs><title>logo</title><ellipse class="cls-1" cx="110.88" cy="99.48" rx="109.38" ry="97.98"/><text class="cls-2" transform="translate(67.78 166.27) scale(1.12 1)">Hje<tspan class="cls-3" x="32.43" y="0">m</tspan><tspan class="cls-4" x="50.03" y="0">-IS</tspan></text><path class="cls-5" d="M384.54,379.37a253.68,253.68,0,0,1,2.91-60.47c1.31-7.78,3.13-15.82,8.36-22.14s14.81-10.43,23-7.64c9.71,3.29,13.19,14.09,13.12,23.39,0,3.11-.32,6.34-2,9.08-3.48,5.74-11.55,7.57-18.71,8.83" transform="translate(-270.24 -248)"/><path class="cls-5" d="M372.73,379.37a259,259,0,0,0-2.85-60.47c-1.29-7.78-3.07-15.82-8.2-22.14s-14.5-10.43-22.56-7.64c-9.51,3.29-12.92,14.09-12.85,23.39,0,3.11.31,6.34,1.94,9.08,3.4,5.74,11.31,7.57,18.32,8.83" transform="translate(-270.24 -248)"/><path class="cls-5" d="M393.25,379.37a187.21,187.21,0,0,1,6.7-69c1-3.5,2.22-7.1,4.88-9.78s7.21-4.13,10.68-2.4A9.79,9.79,0,0,1,419,301.5c2.47,3.61,3.4,8.26,1.68,12.21a10.74,10.74,0,0,1-11,6.15" transform="translate(-270.24 -248)"/><path class="cls-5" d="M364.21,379.37a179.85,179.85,0,0,0-7-69c-1.06-3.5-2.31-7.1-5.09-9.78s-7.52-4.13-11.14-2.4a10.09,10.09,0,0,0-3.68,3.29c-2.58,3.61-3.55,8.26-1.75,12.21A11.28,11.28,0,0,0,347,319.86" transform="translate(-270.24 -248)"/><path class="cls-6" d="M456.52,384.16,430.39,387a6.86,6.86,0,0,1-7.67-5.73l-1.15-9.43a6.61,6.61,0,0,1,6.09-7.21l26.13-2.81a6.84,6.84,0,0,1,7.67,5.72l1.15,9.44A6.6,6.6,0,0,1,456.52,384.16Z" transform="translate(-270.24 -248)"/><line class="cls-7" x1="161.35" y1="116.06" x2="164.08" y2="138.42"/><line class="cls-7" x1="191.78" y1="124.11" x2="151.89" y2="128.41"/></svg>